# xmcd
#
# Track frame offsets:
#	150
#	11850
#	24650
#	35445
#	46810
#	58232
#	68652
#	80622
#	90382
#	99065
#	114850
#	125050
#	137247
#	146572
#	159830
#	168797
#	180315
#	190132
#	200617
#	210920
#	221685
#
# Disc length: 3112 seconds
#
# Revision: 1
# Processed by: cddbd v1.5.2PL0 Copyright (c) Steve Scherf et al.
# Submitted via: audiograbber 1.83.01
#
DISCID=170c2615
DTITLE=Various Artist - A Liitle Bit Country, A Little Bit Rock 'n' Roll (Read
DTITLE=er's Digest) [Disc 1]
DYEAR=2001
DGENRE=Country
TTITLE0=Slim Dusty - Duncan
TTITLE1=Johnny Cash - Folsom Prison Blues
TTITLE2=Leroy Van Dyke - Walk On By
TTITLE3=Donna Fargo - The Happiest Girl In The Whole U.S.A.
TTITLE4=Don Gibson - Oh, Lonesome Me
TTITLE5=Ferlin Husky - Wings Of A Dove
TTITLE6=Loretta Lynn - One's On The Way
TTITLE7=Marty Robbins - Just Married
TTITLE8=Roger Miller - You Can't Roller Skate In A Buffalo Herd
TTITLE9=Cash Backman - My Girl Bill
TTITLE10=Carl Perkins - Blue Suede Shoes
TTITLE11=Chuck Berry - You Can Never Tell
TTITLE12=Wanda Jackson - Let's Have A Party
TTITLE13=Bill Haley and His Comets - Joey's Song
TTITLE14=Johnny Burnette - You're Sixteen
TTITLE15=Crash Craddock - Boom Boom Baby
TTITLE16=Buddy Holly - Heartbeat
TTITLE17=Ricky Nelson - Hello Mary Lou
TTITLE18=Lonnie Lee - I Found A New Love
TTITLE19=The Everly Brothers - That's Old Fashioned (That's The Way Love Should
TTITLE19=Be)
TTITLE20=Johnny Preston - Running Bear
EXTD=Readers Digest Music
EXTT0=
EXTT1=
EXTT2=
EXTT3=
EXTT4=
EXTT5=
EXTT6=
EXTT7=
EXTT8=
EXTT9=
EXTT10=
EXTT11=
EXTT12=
EXTT13=
EXTT14=
EXTT15=
EXTT16=
EXTT17=
EXTT18=
EXTT19=
EXTT20=
PLAYORDER=
